<?xml version="1.0" encoding="UTF-8" standalone="no"?>
<!-- Generator: Adobe Illustrator 17.1.0, SVG Export Plug-In . SVG Version: 6.00 Build 0)  -->

<svg
   xmlns:dc="http://purl.org/dc/elements/1.1/"
   xmlns:cc="http://creativecommons.org/ns#"
   xmlns:rdf="http://www.w3.org/1999/02/22-rdf-syntax-ns#"
   xmlns:svg="http://www.w3.org/2000/svg"
   xmlns="http://www.w3.org/2000/svg"
   xmlns:sodipodi="http://sodipodi.sourceforge.net/DTD/sodipodi-0.dtd"
   xmlns:inkscape="http://www.inkscape.org/namespaces/inkscape"
   version="1.1"
   id="Main logo"
   x="0px"
   y="0px"
   viewBox="0 0 250 250"
   enable-background="new 0 0 895.8 515.9"
   xml:space="preserve"
   inkscape:version="0.91 r13725"
   sodipodi:docname="logo.svg"
   width="250"
   height="250"
   inkscape:export-filename="/home/maso/git/pluf-spa/digidoci-employee/app/images/logo.png"
   inkscape:export-xdpi="93.940002"
   inkscape:export-ydpi="93.940002"><metadata
     id="metadata109"><rdf:RDF><cc:Work
         rdf:about=""><dc:format>image/svg+xml</dc:format><dc:type
           rdf:resource="http://purl.org/dc/dcmitype/StillImage" /></cc:Work></rdf:RDF></metadata><defs
     id="defs107" /><sodipodi:namedview
     pagecolor="#ffffff"
     bordercolor="#666666"
     borderopacity="1"
     objecttolerance="10"
     gridtolerance="10"
     guidetolerance="10"
     inkscape:pageopacity="0"
     inkscape:pageshadow="2"
     inkscape:window-width="1366"
     inkscape:window-height="703"
     id="namedview105"
     showgrid="false"
     inkscape:zoom="1.3217236"
     inkscape:cx="30.203016"
     inkscape:cy="102.30431"
     inkscape:window-x="0"
     inkscape:window-y="0"
     inkscape:window-maximized="1"
     inkscape:current-layer="Main logo" /><g
     id="g5"
     transform="matrix(0.48545052,0,0,0.65743516,-98.281454,-41.89415)"><g
       id="g7"><g
         id="g9"><g
           id="g11"><path
             d="m 311.6,182.7 c 0,4.8 -3.9,8.6 -8.6,8.5 l -1.3,0 c -4.7,-0.2 -8.6,-4.3 -8.6,-9.1 l 0,-7 c 0,-4.8 3.9,-8.6 8.6,-8.5 l 1.3,0 c 4.7,0.2 8.6,4.3 8.6,9.1 l 0,7 z"
             id="path13"
             inkscape:connector-curvature="0"
             style="fill:#ed0f0f" /><g
             id="g15"><path
               d="m 293.1,177.9 c -0.4,-4.5 -0.5,-6.7 -5.1,-12.3 -4.6,-5.6 -10.7,-10.7 -9.9,-22.9 1.3,-19.3 24.2,-18.5 24.2,-18.5 0,0 23,0.8 24.2,20.3 0.8,12.2 -5.4,16.9 -9.9,22.1 -4.6,5.3 -4.7,7.5 -5.1,12 l -18.4,-0.7 z"
               id="path17"
               inkscape:connector-curvature="0"
               style="fill:#ed0f0f" /></g><g
             id="g19"><polygon
               points="300.8,163.8 300.8,178.1 298.6,178 298.6,164.3 292.9,151.6 302.6,152 312.3,152.3 306.6,164.5 306.6,178.3 304.4,178.2 304.4,164 308.9,154.4 302.6,154.2 296.4,154 "
               id="polygon21"
               style="fill:#ed0f0f" /></g><path
             d="m 311.4,184.1 -18.5,-0.7 c -0.9,0 -1.6,-0.8 -1.6,-1.7 0,-0.9 0.7,-1.6 1.6,-1.6 l 18.5,0.7 c 0.9,0 1.6,0.8 1.6,1.7 0.1,0.9 -0.7,1.7 -1.6,1.6 z"
             id="path23"
             inkscape:connector-curvature="0"
             style="fill:#ed0f0f" /><path
             d="m 309.3,189.4 -14.1,-0.5 c -0.9,0 -1.6,-0.8 -1.6,-1.7 0,-0.9 0.7,-1.6 1.6,-1.6 l 14.1,0.5 c 0.9,0 1.6,0.8 1.6,1.7 0,1 -0.7,1.7 -1.6,1.6 z"
             id="path25"
             inkscape:connector-curvature="0"
             style="fill:#ed0f0f" /></g><polygon
           points="303.7,117.8 299.5,117.5 299.8,105.5 304,105.8 "
           id="polygon27"
           style="fill:#ed0f0f" /><polygon
           points="284.5,122.6 277.8,112.5 281.3,110.1 288,120.2 "
           id="polygon29"
           style="fill:#ed0f0f" /><polygon
           points="317.7,121.3 314.1,119 319.9,108.8 323.6,111.1 "
           id="polygon31"
           style="fill:#ed0f0f" /></g><g
         id="g33"><path
           d="m 592.6,344.2 c 19.3,0 33.9,-14.5 32.4,-32.3 L 613.9,181.8 C 612.4,164 595.3,149.4 576,149.3 l -313.6,-0.7 c -19.3,0 -33.9,14.5 -32.4,32.3 L 241.1,311 c 1.5,17.8 18.6,32.4 37.9,32.5 l 313.6,0.7 z"
           id="path35"
           inkscape:connector-curvature="0"
           style="fill:#449799" /><polygon
           points="572.1,329.7 558.1,163.9 278.6,163.1 292.7,328.9 "
           id="polygon37"
           style="fill:#ffffff" /><path
           d="m 345.5,352 c 1.9,19.9 -12.7,36.1 -32.6,36.2 -19.9,0.1 -37.5,-15.9 -39.3,-35.7 -1.9,-19.9 12.7,-36.1 32.6,-36.2 19.8,-0.1 37.4,15.9 39.3,35.7 z"
           id="path39"
           inkscape:connector-curvature="0"
           style="fill:#449799" /><path
           d="m 325.9,352.2 c 0.9,9.1 -5.8,16.4 -14.8,16.5 -9,0.1 -17.1,-7.2 -17.9,-16.3 -0.9,-9.1 5.8,-16.4 14.8,-16.5 9,-0.1 17.1,7.2 17.9,16.3 z"
           id="path41"
           inkscape:connector-curvature="0"
           style="fill:#ffffff" /><path
           d="m 587.7,350.7 c 1.9,19.9 -12.7,36.1 -32.6,36.2 -19.9,0.1 -37.5,-15.9 -39.3,-35.7 -1.9,-19.9 12.7,-36.1 32.6,-36.2 19.8,-0.2 37.4,15.8 39.3,35.7 z"
           id="path43"
           inkscape:connector-curvature="0"
           style="fill:#449799" /><path
           d="m 568.1,350.8 c 0.9,9.1 -5.8,16.4 -14.8,16.5 -9,0.1 -17.1,-7.2 -17.9,-16.3 -0.9,-9.1 5.8,-16.5 14.8,-16.5 9,0 17.1,7.3 17.9,16.3 z"
           id="path45"
           inkscape:connector-curvature="0"
           style="fill:#ffffff" /><path
           d="m 277.9,251.2 c 0.9,9.1 -5.8,16.4 -14.8,16.5 -9,0.1 -17.1,-7.2 -17.9,-16.3 -0.9,-9.1 5.8,-16.4 14.8,-16.5 9,-0.1 17.1,7.2 17.9,16.3 z"
           id="path47"
           inkscape:connector-curvature="0"
           style="fill:#ffffff" /><path
           d="m 435,280 c 0,6.6 -5.4,12 -12,12 l -13,0 c -6.6,0 -12,-5.4 -12,-12 l 0,-69 c 0,-6.6 5.4,-12 12,-12 l 13,0 c 6.6,0 12,5.4 12,12 l 0,69 z"
           id="path49"
           inkscape:connector-curvature="0"
           style="fill:#ed0f0f" /><path
           d="m 451,227 c 6.6,0 12,5.4 12,12 l 0,13 c 0,6.6 -5.4,12 -12,12 l -69,0 c -6.6,0 -12,-5.4 -12,-12 l 0,-13 c 0,-6.6 5.4,-12 12,-12 l 69,0 z"
           id="path51"
           inkscape:connector-curvature="0"
           style="fill:#ed0f0f" /><path
           d="m 600.1,267 c 0.2,2.8 -1.8,5 -4.6,5 l 0,0 c -2.8,0 -5.2,-2.2 -5.4,-5 l -4.2,-48 c -0.2,-2.8 1.8,-5 4.6,-5 l 0,0 c 2.8,0 5.2,2.2 5.4,5 l 4.2,48 z"
           id="path53"
           inkscape:connector-curvature="0"
           style="fill:#ebeae8" /><path
           d="m 706.3,252 c 0,-1.7 -1.3,-3 -3,-3 l -60.7,0 c -1.7,0 -3,1.3 -3,3 l 0,0 c 0,1.7 1.3,3 3,3 l 60.7,0 c 1.7,0 3,-1.3 3,-3 l 0,0 z"
           id="path55"
           inkscape:connector-curvature="0"
           style="fill:#449799" /><path
           d="m 679.7,267.3 c 0,-1.7 -0.8,-3 -1.7,-3 l -34.3,0 c -0.9,0 -1.7,1.3 -1.7,3 l 0,0 c 0,1.7 0.8,3 1.7,3 l 34.3,0 c 0.9,0 1.7,-1.3 1.7,-3 l 0,0 z"
           id="path57"
           inkscape:connector-curvature="0"
           style="fill:#449799" /><path
           d="m 674.7,235.3 c 0,-1.7 -0.8,-3 -1.7,-3 l -34.3,0 c -0.9,0 -1.7,1.3 -1.7,3 l 0,0 c 0,1.7 0.8,3 1.7,3 l 34.3,0 c 0.9,0 1.7,-1.3 1.7,-3 l 0,0 z"
           id="path59"
           inkscape:connector-curvature="0"
           style="fill:#449799" /></g></g><g
       id="g61"><path
         d="m 338.4,134.9 c 0,-2.5 0.7,-5.1 2.2,-7.7 l 4.1,1.7 c -1.3,2.5 -2,4.5 -2,6.1 0,1.4 0.5,2.5 1.6,3.2 0.9,0.7 2.1,1.1 3.6,1.1 2.4,0 5.2,-1 8.5,-3.1 -0.6,0 -1.6,-0.4 -2.9,-1.2 -1.4,-0.7 -2.2,-1.3 -2.7,-1.9 l 2.2,-3.6 c 1.1,1 2.3,1.7 3.7,1.9 0.8,0.1 2.2,0.2 4.2,0.2 l 0,4.4 -2.3,0 0.7,3.4 c -3.8,2.7 -7.6,4.1 -11.4,4.1 -2.9,0 -5.2,-0.7 -6.9,-2.2 -1.7,-1.4 -2.6,-3.6 -2.6,-6.4 z"
         id="path63"
         inkscape:connector-curvature="0"
         style="fill:#ea5b0c" /><path
         d="m 360.6,131.7 2.3,0 c 2.3,0.1 3.4,-0.2 3.4,-1 0,-0.6 -1.6,-3.2 -4.9,-7.7 l 8.3,-7 2.8,3.1 -5.5,4.6 c 0.8,1.2 1.7,2.3 2.4,3.5 0.9,1.5 1.4,2.8 1.4,3.9 0,1.7 -0.7,3 -2.2,3.9 -1.3,0.8 -2.8,1.2 -4.6,1.2 l -3.4,0 0,-4.5 z"
         id="path65"
         inkscape:connector-curvature="0"
         style="fill:#ea5b0c" /><path
         d="m 375.3,131.7 6.7,0 c 0.7,0 1.1,-0.3 1.1,-0.8 0,-0.3 -1.3,-2.6 -4,-6.9 l 3.8,-2.3 c 1,1.6 1.9,3.1 2.9,4.7 1.2,2.1 1.8,3.8 1.8,5.1 0,1.6 -0.6,2.8 -1.9,3.6 -1.1,0.7 -2.5,1.1 -4.1,1.1 l -6.3,0 0,-4.5 z"
         id="path67"
         inkscape:connector-curvature="0"
         style="fill:#ea5b0c" /><path
         d="m 396.5,134.9 c 0,-2.5 0.7,-5.1 2.2,-7.7 l 4.1,1.7 c -1.3,2.5 -2,4.5 -2,6.1 0,1.4 0.5,2.5 1.6,3.2 0.9,0.7 2.1,1.1 3.6,1.1 2.4,0 5.2,-1 8.5,-3.1 -0.6,0 -1.6,-0.4 -2.9,-1.2 -1.4,-0.7 -2.2,-1.3 -2.7,-1.9 l 2.2,-3.6 c 1.1,1 2.3,1.7 3.7,1.9 0.8,0.1 2.2,0.2 4.2,0.2 l 0,4.4 -2.3,0 0.7,3.4 c -3.8,2.7 -7.6,4.1 -11.4,4.1 -2.9,0 -5.2,-0.7 -6.9,-2.2 -1.7,-1.4 -2.6,-3.6 -2.6,-6.4 z"
         id="path69"
         inkscape:connector-curvature="0"
         style="fill:#ea5b0c" /><path
         d="m 418.7,131.7 c 5.3,0 9.1,-0.7 11.4,-2.2 l -5.5,-1.4 -0.3,1 -4.1,-1.2 1.5,-4.7 14.2,3.4 0,4.1 -1.4,0.7 c 0.3,0.1 1.2,0.2 2.6,0.2 l 0,4.4 -2.7,0 c -1.2,0 -2.5,-0.7 -4,-2.1 -2.2,1.4 -6,2.1 -11.3,2.1 l -0.2,0 0,-4.3 z m 7.2,7.1 4,0 0,3.9 -4,0 0,-3.9 z"
         id="path71"
         inkscape:connector-curvature="0"
         style="fill:#ea5b0c" /><path
         d="m 436.3,131.7 2.7,0 c 1.3,0 1.9,-0.4 1.9,-1.3 0,-0.4 -0.2,-1.6 -0.7,-3.4 l 4.1,-0.8 c 0.7,2.2 1,4 1,5.2 0,1.6 -0.6,2.8 -1.8,3.6 -1,0.7 -2.3,1.1 -3.9,1.1 l -3.3,0 0,-4.4 z m 0.8,7.1 3.6,0 0,3.6 -3.6,0 0,-3.6 z m 4.4,0 3.6,0 0,3.6 -3.6,0 0,-3.6 z"
         id="path73"
         inkscape:connector-curvature="0"
         style="fill:#ea5b0c" /><path
         d="m 448.6,131.7 6.7,0 c 0.7,0 1.1,-0.3 1.1,-0.8 0,-0.3 -1.3,-2.6 -4,-6.9 l 3.8,-2.3 c 1,1.6 1.9,3.1 2.9,4.7 1.2,2.1 1.8,3.8 1.8,5.1 0,1.6 -0.6,2.8 -1.9,3.6 -1.1,0.7 -2.5,1.1 -4.1,1.1 l -6.3,0 0,-4.5 z"
         id="path75"
         inkscape:connector-curvature="0"
         style="fill:#ea5b0c" /></g><g
       id="g77"><g
         id="g79"><path
           d="m 355,366.1 c 0.1,-0.4 0.1,-1.1 0,-2.1 -0.1,-2.7 0,-5.5 0.3,-8.5 0.1,-0.6 0.1,-1.1 0.1,-1.4 0,-0.1 -0.1,-0.2 -0.2,-0.3 -0.8,-0.2 -1.3,-0.6 -1.3,-1.1 0,-0.4 0.1,-0.7 0.4,-1.1 0.3,-0.3 0.7,-0.5 1,-0.5 l 1.6,0 c 0.7,0 1.7,-0.1 2.9,-0.2 1.1,-0.1 1.9,-0.1 2.6,-0.1 2.2,0 4,0.6 5.4,1.8 1.4,1.2 2.3,2.8 2.4,4.8 0.2,2.2 -0.7,4.3 -2.6,6.1 -1.9,1.8 -4.3,3 -7.2,3.7 -0.8,0.2 -1.3,0.3 -1.6,0.4 -0.3,0.1 -0.7,0.3 -1.1,0.6 -0.5,0.4 -1,0.5 -1.5,0.5 -0.4,0 -0.8,-0.2 -1.1,-0.6 -0.3,-0.4 -0.5,-0.7 -0.5,-0.9 0,-0.2 0,-0.4 0.2,-0.7 l 0.2,-0.4 z m 3,-0.6 c 0.4,0 1.6,-0.3 3.5,-0.9 1.9,-0.6 3.4,-1.5 4.5,-2.8 1.1,-1.3 1.6,-2.7 1.4,-4.3 -0.1,-1.3 -0.7,-2.3 -1.6,-3.1 -1,-0.8 -2.2,-1.1 -3.6,-1.1 -1,0 -2.2,0.1 -3.6,0.3 -0.2,0 -0.3,0 -0.4,0 -0.4,5.2 -0.5,8.9 -0.3,11 0,0.4 0,0.7 0.1,0.9 z"
           id="path81"
           inkscape:connector-curvature="0"
           style="fill:#ea5b0c" /><path
           d="m 373.3,360.2 0,0 c 0.1,-1.4 0.2,-2.2 0.2,-2.4 -0.1,-0.6 0,-1.1 0.3,-1.4 0.2,-0.4 0.6,-0.6 1,-0.6 0.5,0 1,0.1 1.3,0.4 0.3,0.2 0.5,0.5 0.5,0.8 0,0.3 -0.1,1 -0.3,1.9 l 0,0.3 c -0.3,1.5 -0.4,2.7 -0.4,3.7 0,1 0,1.7 0.1,2.3 0,0.5 0.2,1.1 0.4,1.9 0,0.1 0.1,0.3 0.1,0.3 0,0.2 -0.1,0.4 -0.4,0.7 -0.3,0.3 -0.7,0.5 -1.1,0.5 -1,0 -1.6,-0.8 -1.7,-2.3 -0.1,-1.3 -0.1,-2.9 0.1,-4.8 -0.2,-0.5 -0.1,-0.9 -0.1,-1.3 z m 4.8,-9.6 c 0,0.6 -0.2,1 -0.6,1.5 -0.5,0.4 -0.9,0.6 -1.2,0.6 -0.5,0 -0.9,-0.2 -1.3,-0.6 -0.4,-0.4 -0.6,-0.8 -0.6,-1.2 0,-0.6 0.1,-1 0.4,-1.4 0.3,-0.3 0.8,-0.5 1.5,-0.5 0.5,0 1,0.2 1.3,0.5 0.3,0.3 0.5,0.7 0.5,1.1 z"
           id="path83"
           inkscape:connector-curvature="0"
           style="fill:#ea5b0c" /><path
           d="m 387.7,364.4 c -0.8,1 -1.7,1.8 -2.8,2.4 -1.1,0.6 -2.1,0.9 -2.9,0.9 -0.8,0 -1.5,-0.2 -2,-0.7 -0.5,-0.5 -0.8,-1.1 -0.9,-2 -0.1,-1.2 0.2,-2.5 1,-4 0.8,-1.5 1.9,-2.8 3.5,-3.9 1.5,-1.1 2.9,-1.6 4.2,-1.6 0.7,0 1.4,0.2 1.9,0.6 0.1,0.1 0.2,0.2 0.3,0.2 0.2,0.1 0.4,0.4 0.6,0.7 0.2,0.3 0.3,0.6 0.3,0.9 0,0.1 -0.1,0.6 -0.3,1.4 -0.2,0.8 -0.4,1.6 -0.4,2.4 -0.1,0.8 -0.1,2.7 -0.2,5.9 -0.1,2.7 -0.7,4.7 -1.8,6 -1.1,1.3 -2.4,1.9 -3.8,1.9 -1.5,0 -3.1,-0.5 -4.6,-1.5 -1.5,-1 -2.3,-1.9 -2.4,-2.6 -0.1,-0.6 0.2,-0.9 0.8,-0.9 0.2,0 0.7,0.2 1.4,0.7 1.9,1.2 3.4,1.8 4.7,1.8 1,0 1.7,-0.6 2.3,-1.8 0.6,-1.2 1,-3.6 1.1,-6.8 z m -0.3,-6.5 c -0.6,0 -1.3,0.3 -2.2,1 -0.9,0.7 -1.7,1.6 -2.3,2.8 -0.7,1.2 -1,2.1 -0.9,2.9 0,0.4 0.2,0.6 0.5,0.6 1,0 2,-0.4 2.9,-1.2 0.9,-0.8 1.6,-1.7 2.2,-2.8 0.5,-1.1 0.8,-1.9 0.7,-2.4 0,-0.3 -0.1,-0.5 -0.3,-0.7 -0.2,-0.1 -0.4,-0.2 -0.6,-0.2 z"
           id="path85"
           inkscape:connector-curvature="0"
           style="fill:#ea5b0c" /><path
           d="m 393.9,360.2 0,0 c 0.1,-1.4 0.2,-2.2 0.2,-2.4 0,-0.6 0,-1.1 0.3,-1.4 0.2,-0.4 0.6,-0.6 1,-0.6 0.5,0 1,0.1 1.3,0.4 0.3,0.3 0.5,0.5 0.5,0.8 0,0.3 -0.1,1 -0.3,1.9 l 0,0.3 c -0.3,1.5 -0.4,2.7 -0.4,3.7 0,1 0,1.7 0.1,2.3 0,0.5 0.2,1.1 0.4,1.9 0,0.1 0.1,0.3 0.1,0.3 0,0.2 -0.1,0.4 -0.4,0.7 -0.3,0.3 -0.7,0.5 -1.1,0.5 -1,0 -1.6,-0.8 -1.7,-2.3 -0.1,-1.3 -0.1,-2.9 0.1,-4.8 -0.2,-0.5 -0.2,-0.9 -0.1,-1.3 z m 4.8,-9.6 c 0,0.6 -0.2,1 -0.6,1.5 -0.5,0.4 -0.9,0.6 -1.2,0.6 -0.5,0 -0.9,-0.2 -1.3,-0.6 -0.4,-0.4 -0.6,-0.8 -0.6,-1.2 0,-0.6 0.1,-1 0.4,-1.4 0.3,-0.3 0.8,-0.5 1.5,-0.5 0.5,0 1,0.2 1.3,0.5 0.2,0.3 0.4,0.7 0.5,1.1 z"
           id="path87"
           inkscape:connector-curvature="0"
           style="fill:#ea5b0c" /><path
           d="m 401.3,366.1 c 0.1,-0.4 0.1,-1.1 0,-2.1 -0.1,-2.7 0,-5.5 0.3,-8.5 0.1,-0.6 0.1,-1.1 0.1,-1.4 0,-0.1 -0.1,-0.2 -0.2,-0.3 -0.8,-0.2 -1.3,-0.6 -1.3,-1.1 0,-0.4 0.1,-0.7 0.4,-1.1 0.3,-0.4 0.7,-0.5 1,-0.5 l 1.6,0 c 0.7,0 1.7,-0.1 2.9,-0.2 1.1,-0.1 1.9,-0.1 2.6,-0.1 2.2,0 4,0.6 5.4,1.8 1.4,1.2 2.3,2.8 2.4,4.8 0.2,2.2 -0.7,4.3 -2.6,6.1 -1.9,1.8 -4.3,3 -7.2,3.7 -0.8,0.2 -1.3,0.3 -1.6,0.4 -0.3,0.1 -0.7,0.3 -1.1,0.6 -0.5,0.4 -1,0.5 -1.5,0.5 -0.4,0 -0.8,-0.2 -1.1,-0.6 -0.3,-0.4 -0.5,-0.7 -0.5,-0.9 0,-0.2 0,-0.4 0.2,-0.7 l 0.2,-0.4 z m 3,-0.6 c 0.4,0 1.6,-0.3 3.5,-0.9 1.9,-0.6 3.4,-1.5 4.5,-2.8 1.1,-1.3 1.6,-2.7 1.4,-4.3 -0.1,-1.3 -0.7,-2.3 -1.6,-3.1 -1,-0.8 -2.2,-1.1 -3.6,-1.1 -1,0 -2.2,0.1 -3.6,0.3 -0.2,0 -0.3,0 -0.4,0 -0.4,5.2 -0.5,8.9 -0.3,11 0,0.4 0.1,0.7 0.1,0.9 z"
           id="path89"
           inkscape:connector-curvature="0"
           style="fill:#ea5b0c" /><path
           d="m 430,362 c -0.4,1.8 -1.2,3.4 -2.6,4.6 -1.4,1.2 -2.8,1.9 -4.2,1.9 -1.2,0 -2.1,-0.4 -3,-1.3 -0.8,-0.8 -1.3,-1.9 -1.4,-3.1 -0.2,-2 0.3,-4 1.5,-5.9 1.2,-1.9 2.8,-2.9 4.7,-2.9 1.3,0 2.5,0.5 3.4,1.5 0.9,1 1.4,2.2 1.5,3.5 0.2,0.6 0.2,1.2 0.1,1.7 l 0,0 z m -6.4,-3.7 c -0.5,0.5 -1,1.3 -1.4,2.3 -0.4,1 -0.6,2.1 -0.5,3.2 0.1,0.6 0.2,1.2 0.5,1.6 0.3,0.4 0.6,0.6 1,0.6 1,0 1.9,-0.6 2.9,-1.7 0.9,-1.1 1.4,-2.4 1.2,-3.9 -0.1,-0.8 -0.3,-1.5 -0.7,-2 -0.4,-0.5 -0.9,-0.8 -1.5,-0.8 -0.5,0.2 -1,0.4 -1.5,0.7 l 0,0 z"
           id="path91"
           inkscape:connector-curvature="0"
           style="fill:#ea5b0c" /><path
           d="m 443,358.2 0,0 0,0 c -0.4,0.3 -0.8,0.5 -1,0.7 -0.5,0.3 -1,0.7 -1.5,1.1 -0.6,0.5 -1,0.9 -1.3,1.2 -0.2,0.3 -0.3,0.5 -0.3,0.6 0,0.1 0.5,0.7 1.5,1.6 1,0.9 1.8,1.6 2.3,2 0.5,0.4 1.1,0.6 1.6,0.6 l 0.5,0 c 0.2,0 0.3,0.1 0.5,0.2 0.1,0.1 0.2,0.3 0.2,0.5 0,0.3 -0.1,0.7 -0.5,1.1 -0.4,0.4 -1,0.6 -2,0.6 -0.6,0 -1.2,-0.2 -1.8,-0.6 -0.6,-0.4 -1.6,-1.4 -2.9,-2.8 -1.1,-1.2 -1.6,-1.8 -1.7,-1.8 -0.1,0 -0.2,0.1 -0.5,0.4 -0.2,0.3 -0.4,0.5 -0.5,0.6 l 0,0 c -0.1,0.6 -0.1,1.5 0,2.5 0,0.5 -0.1,0.9 -0.3,1.3 -0.3,0.3 -0.6,0.5 -1.1,0.5 -0.5,0 -0.8,-0.1 -1.1,-0.4 -0.3,-0.3 -0.4,-0.5 -0.5,-0.8 0,-0.3 0,-0.9 0.1,-1.8 0.2,-1.8 0.3,-4.3 0.3,-7.3 0,-2.4 0.1,-4.3 0.2,-5.7 0.1,-1.4 0.2,-2.3 0.3,-2.7 0.1,-0.4 0.3,-0.8 0.6,-1 0.3,-0.3 0.6,-0.4 1,-0.4 0.3,0 0.6,0.1 0.9,0.4 0.2,0.3 0.4,0.6 0.4,1 0,0.5 -0.1,2.5 -0.5,5.9 l -0.1,1.5 0,0 c -0.1,2.3 -0.2,3.5 -0.2,3.9 l 3.3,-3.2 c 1.7,-1.8 2.9,-2.7 3.8,-2.7 0.8,0 1.3,0.3 1.3,1 0.1,1 -0.3,1.6 -1,2 z"
           id="path93"
           inkscape:connector-curvature="0"
           style="fill:#ea5b0c" /><path
           d="m 447.2,360.2 0,0 c 0.1,-1.4 0.2,-2.2 0.2,-2.4 0,-0.6 0,-1.1 0.3,-1.4 0.2,-0.4 0.6,-0.6 1,-0.6 0.5,0 1,0.1 1.3,0.4 0.3,0.2 0.5,0.5 0.5,0.8 0,0.3 -0.1,1 -0.3,1.9 l 0,0.3 c -0.3,1.5 -0.4,2.7 -0.4,3.7 0,1 0,1.7 0.1,2.3 0,0.5 0.2,1.1 0.4,1.9 0,0.1 0.1,0.3 0.1,0.3 0,0.2 -0.1,0.4 -0.4,0.7 -0.3,0.3 -0.7,0.5 -1.1,0.5 -1,0 -1.6,-0.8 -1.7,-2.3 -0.1,-1.3 -0.1,-2.9 0.1,-4.8 -0.1,-0.5 -0.1,-0.9 -0.1,-1.3 z m 4.8,-9.6 c 0,0.6 -0.2,1 -0.6,1.5 -0.5,0.4 -0.9,0.6 -1.2,0.6 -0.5,0 -0.9,-0.2 -1.3,-0.6 -0.4,-0.4 -0.6,-0.8 -0.6,-1.2 0,-0.6 0.1,-1 0.4,-1.4 0.3,-0.3 0.8,-0.5 1.5,-0.5 0.5,0 1,0.2 1.3,0.5 0.3,0.3 0.5,0.7 0.5,1.1 z"
           id="path95"
           inkscape:connector-curvature="0"
           style="fill:#ea5b0c" /><path
           d="m 455.1,367.7 c -0.5,0 -0.8,-0.1 -1.1,-0.3 -0.2,-0.2 -0.4,-0.7 -0.5,-1.4 0,-0.4 0,-0.8 0,-1 0,-0.2 0.2,-0.4 0.5,-0.5 0.3,-0.1 0.8,-0.2 1.4,-0.2 0.5,0 0.8,0.1 1.1,0.3 0.3,0.2 0.4,0.5 0.4,0.7 0,0.4 0,0.8 -0.1,1 -0.1,0.2 -0.4,0.5 -0.8,0.9 -0.3,0.3 -0.7,0.5 -0.9,0.5 z"
           id="path97"
           inkscape:connector-curvature="0"
           style="fill:#ea5b0c" /><path
           d="m 463.4,368.6 c -1.3,0 -2.3,-0.4 -3,-1.1 -0.7,-0.7 -1.2,-1.7 -1.3,-2.9 -0.2,-2 0.4,-4.1 1.8,-6.4 1.4,-2.3 2.9,-3.4 4.4,-3.4 0.7,0 1.4,0.4 2,1.1 0.6,0.7 0.9,1.5 1,2.3 0.1,0.7 0,1.3 -0.3,1.5 -0.3,0.2 -0.5,0.4 -0.8,0.4 -0.8,0 -1.2,-0.5 -1.5,-1.6 -0.2,-0.8 -0.4,-1.1 -0.7,-1.1 -0.6,0 -1.3,0.9 -2.2,2.6 -0.8,1.7 -1.2,3.2 -1.1,4.5 0.1,1.1 0.7,1.6 1.8,1.6 1.3,0 2.5,-0.4 3.7,-1.3 0.6,-0.4 1,-0.6 1.4,-0.6 0.4,0 0.7,0.2 0.7,0.6 0.1,0.6 -0.6,1.4 -1.9,2.3 -1.1,1 -2.5,1.5 -4,1.5 z"
           id="path99"
           inkscape:connector-curvature="0"
           style="fill:#ea5b0c" /><path
           d="m 482.5,362 c -0.4,1.8 -1.2,3.4 -2.6,4.6 -1.4,1.2 -2.8,1.9 -4.2,1.9 -1.2,0 -2.1,-0.4 -3,-1.3 -0.9,-0.9 -1.3,-1.9 -1.4,-3.1 -0.2,-2 0.3,-4 1.5,-5.9 1.2,-1.9 2.8,-2.9 4.7,-2.9 1.3,0 2.5,0.5 3.4,1.5 0.9,1 1.4,2.2 1.5,3.5 0.2,0.6 0.2,1.2 0.1,1.7 l 0,0 z m -6.4,-3.7 c -0.5,0.5 -1,1.3 -1.4,2.3 -0.4,1.1 -0.6,2.1 -0.5,3.2 0.1,0.6 0.2,1.2 0.5,1.6 0.3,0.4 0.6,0.6 1,0.6 1,0 1.9,-0.6 2.9,-1.7 0.9,-1.1 1.4,-2.4 1.2,-3.9 -0.1,-0.8 -0.3,-1.5 -0.7,-2 -0.4,-0.5 -0.9,-0.8 -1.5,-0.8 -0.6,0.2 -1.1,0.4 -1.5,0.7 l 0,0 z"
           id="path101"
           inkscape:connector-curvature="0"
           style="fill:#ea5b0c" /><path
           d="m 488.5,367.3 c 0,0.8 -0.4,1.2 -1.2,1.2 -1,0 -1.6,-0.7 -1.7,-2.2 -0.2,-2.4 -0.3,-4.4 -0.1,-6.1 0.1,-1.3 0.1,-2.6 0,-3.9 0,-0.3 0,-0.6 0.2,-0.8 0.2,-0.2 0.4,-0.3 0.8,-0.3 1.2,0 1.8,0.7 1.9,2.1 0,0.5 -0.1,1.6 -0.3,3.5 -0.2,1.1 -0.2,1.9 -0.2,2.4 1.8,-4.9 3.6,-7.3 5.4,-7.3 0.7,0 1.3,0.3 1.8,0.9 0.5,0.6 0.8,1.9 1,3.8 0.2,1.8 0.3,2.7 0.5,2.7 0.1,0 0.5,-0.9 1.2,-2.6 0.8,-1.9 1.4,-3.2 2,-3.8 0.6,-0.6 1.3,-0.9 2,-0.9 0.9,0 1.5,0.4 2,1.1 0.5,0.7 0.8,2 1.1,3.8 0.2,1.4 0.5,2.5 0.8,3.2 0.3,0.7 0.6,1.2 1.1,1.4 0.4,0.2 0.6,0.5 0.7,0.8 0,0.3 -0.2,0.7 -0.6,1 -0.4,0.3 -0.9,0.5 -1.3,0.5 -0.8,0 -1.4,-0.4 -2,-1.2 -0.5,-0.8 -1,-2.4 -1.3,-4.7 -0.2,-1.1 -0.3,-1.9 -0.5,-2.3 -0.1,-0.4 -0.3,-0.6 -0.5,-0.6 -0.2,0 -0.4,0.3 -0.7,0.8 -0.3,0.6 -0.7,1.7 -1.4,3.3 -0.6,1.5 -1.1,2.5 -1.6,3.1 -0.5,0.6 -1,0.9 -1.6,0.9 -0.5,0 -0.9,-0.2 -1.4,-0.6 -0.5,-0.4 -0.9,-1.8 -1.1,-4.2 -0.2,-2.2 -0.5,-3.3 -0.7,-3.3 -0.3,0 -1,1 -2.1,2.9 -1,2.1 -1.7,3.8 -2.2,5.4 z"
           id="path103"
           inkscape:connector-curvature="0"
           style="fill:#ea5b0c" /></g></g></g></svg>